<?xml version="1.0" encoding="iso-8859-1"?>
<!-- Generator: Adobe Illustrator 16.0.0, SVG Export Plug-In . SVG Version: 6.00 Build 0)  -->
<!DOCTYPE svg PUBLIC "-//W3C//DTD SVG 1.1//EN" "http://www.w3.org/Graphics/SVG/1.1/DTD/svg11.dtd">
<svg version="1.1" id="Capa_1" xmlns="http://www.w3.org/2000/svg" xmlns:xlink="http://www.w3.org/1999/xlink" x="0px" y="0px"
	 width="747.78px" height="747.78px" viewBox="0 0 747.78 747.78" style="enable-background:new 0 0 747.78 747.78;"
	 xml:space="preserve">
<g>
	<g>
		<path d="M416.032,300.325c-0.016-0.007-0.029-0.007-0.045-0.01c0.008-0.119,0.045-0.233,0.045-0.351V300.325z"/>
		<path d="M216.328,133.369c17.025,0,27.393,13.896,27.393,30.922l-0.057,151.286c0,4.267,3.457,7.716,7.727,7.716
			c4.263,0,7.72-3.45,7.72-7.716l-0.048-248.82c0-17.022,13.803-30.821,30.83-30.821c17.023,0,30.828,13.799,30.828,30.821
			l0.04,236.134c0,4.844,3.917,8.76,8.757,8.76c4.833,0,8.757-3.917,8.757-8.76l0.008-272.059c0-17.033,13.8-30.832,30.828-30.832
			c17.028,0,30.825,13.799,30.825,30.832l0.223,269.056c0,4.387,3.553,7.936,7.938,7.936c4.244,0,7.668-3.326,7.893-7.51
			c0.016,0.003,0.045-227.849,0.045-227.849c0-17.025,13.793-30.825,30.818-30.825s30.83,13.799,30.83,30.825l0.217,333.124
			c0,4.75,3.854,8.606,8.604,8.606s8.6-3.856,8.6-8.606l0.145-118.66c0.008-17.029,13.811-30.821,30.836-30.817
			c17.023,0,30.82,13.807,30.82,30.838l-0.078,205.47c-2.617,26.062-76.139,140.179-103.217,144.849v70.38
			c0,22.171-17.971,40.132-40.135,40.132H278.156c-22.167,0-40.139-17.961-40.139-40.132v-76.289
			c-43.353-32.479-47.14-172.27-47.14-175.051V161.983C190.877,144.959,202.018,133.369,216.328,133.369z"/>
	</g>
</g>
<g>
</g>
<g>
</g>
<g>
</g>
<g>
</g>
<g>
</g>
<g>
</g>
<g>
</g>
<g>
</g>
<g>
</g>
<g>
</g>
<g>
</g>
<g>
</g>
<g>
</g>
<g>
</g>
<g>
</g>
</svg>
